# xmcd
#
# Track frame offsets: 
#        150
#        25683
#        46478
#        80719
#        97003
#        120151
#        145905
#        182561
#        196877
#        233297
#
# Disc length: 3361 seconds
#
# Revision: 0
# Processed by: cddbd v1.5.2PL0 Copyright (c) Steve Scherf et al.
# Submitted via: ExactAudioCopy v0.99pb1
#
DISCID=750d1f0a
DTITLE=Smokin' Gun - Bad Luck Blues
DYEAR=1998
DGENRE=Blues
TTITLE0=Bad Luck Blues
TTITLE1=Don't Touch My Girls
TTITLE2=Nothin Good To Say
TTITLE3=I Need You Baby
TTITLE4=Born Under A Bad Sign
TTITLE5=Don't Go
TTITLE6=A Fool For Your Stockings
TTITLE7=The Blue's Ain't Nothin
TTITLE8=Roadhouse Blues
TTITLE9=Fast Train
EXTD=
EXTT0=
EXTT1=
EXTT2=
EXTT3=
EXTT4=
EXTT5=
EXTT6=
EXTT7=
EXTT8=
EXTT9=
PLAYORDER=
